<svg width="64" height="60" viewBox="0 0 64 60" fill="none" xmlns="http://www.w3.org/2000/svg">
<path d="M32.0026 5.09266C39.5193 -1.65602 51.1351 -1.43202 58.3765 5.82224C65.6148 13.0797 65.8644 24.6379 59.1317 32.1769L31.9962 59.3508L4.86713 32.1769C-1.86555 24.6379 -1.61275 13.0605 5.62232 5.82224C12.8702 -1.42242 24.4636 -1.66562 32.0026 5.09266ZM46.7702 35.5C41.9703 30.6937 56.2877 26.4881 51.2638 31L3 18L27.7307 9.85737C22.6908 5.33905 48.3127 16.6873 43.5 21.5C38.7321 26.2679 5.14232 22.7499 9.53584 27.793L3 18L54.463 27.7962C58.8597 22.7499 51.5445 40.2839 46.7702 35.5Z" fill="#E5111D"/>
</svg>
