<svg width="64" height="64" viewBox="0 0 64 64" fill="none" xmlns="http://www.w3.org/2000/svg">
<g clip-path="url(#clip0_267_988)">
<path d="M32.0026 8.09264C39.5193 1.34397 51.1351 1.56797 58.3765 8.82223C65.6148 16.0797 65.8644 27.6379 59.1317 35.1769L31.9962 62.3508L4.86713 35.1769C-1.86555 27.6379 -1.61275 16.0605 5.62231 8.82223C12.8702 1.57757 24.4636 1.33437 32.0026 8.09264V8.09264ZM53.8454 13.3437C49.0455 8.53744 41.3016 8.34224 36.2777 12.8542L32.0058 16.6877L27.7307 12.8574C22.6908 8.33904 14.9629 8.53744 10.1502 13.3501C5.38232 18.1181 5.14232 25.7499 9.53584 30.793L31.9994 53.2918L54.463 30.7962C58.8597 25.7499 58.6197 18.1277 53.8454 13.3437V13.3437Z" fill="#E5111D"/>
</g>
<defs>
<clipPath id="clip0_267_988">
<rect width="64" height="64" fill="white"/>
</clipPath>
</defs>
</svg>
